/* XPM */
static char *cerbios2[] = {
/* columns rows colors chars-per-pixel */
"32 32 211 2 ",
"   c None",
".  c #680047",
"X  c #79055F",
"o  c #440374",
"O  c #AF0716",
"+  c #9C0D2F",
"@  c #C10020",
"#  c #CF193B",
"$  c #840E5D",
"%  c #852F71",
"&  c #C21C45",
"*  c #00028B",
"=  c #00018C",
"-  c #00028C",
";  c #00038C",
":  c #00028D",
">  c #00038D",
",  c #01038F",
"<  c #010290",
"1  c #020292",
"2  c #040295",
"3  c #040395",
"4  c #040396",
"5  c #050C94",
"6  c #050E94",
"7  c #050298",
"8  c #060299",
"9  c #08029D",
"0  c #08039D",
"q  c #08029F",
"w  c #09029F",
"e  c #09139A",
"r  c #0A139B",
"t  c #0B149E",
"y  c #0C159E",
"u  c #0C179E",
"i  c #0D1A9F",
"p  c #390183",
"a  c #2F079B",
"s  c #2D019E",
"d  c #2C049C",
"f  c #0901A1",
"g  c #0902A1",
"h  c #0A04A1",
"j  c #0B01A4",
"k  c #0B00A6",
"l  c #0D04A7",
"z  c #0D07A7",
"x  c #0D09A5",
"c  c #0D01AA",
"v  c #0E02AB",
"b  c #0E04A9",
"n  c #0E06A9",
"m  c #0F01AC",
"M  c #0F00AD",
"N  c #0F0FA8",
"B  c #1107AF",
"V  c #0D10A3",
"C  c #0D13A2",
"Z  c #0E11A4",
"A  c #0F13A6",
"S  c #0F1DA2",
"D  c #101DA3",
"F  c #101AA6",
"G  c #1113AA",
"H  c #1118A8",
"J  c #141BAE",
"K  c #1000B2",
"L  c #1202B3",
"P  c #1601B0",
"I  c #1206B2",
"U  c #1201B5",
"Y  c #1301B6",
"T  c #1306B5",
"R  c #1A01B4",
"E  c #1408B5",
"W  c #150AB7",
"Q  c #1301BB",
"!  c #1401B8",
"~  c #1500B9",
"^  c #1503B8",
"/  c #1501BA",
"(  c #1501BB",
")  c #1605BB",
"_  c #1707BB",
"`  c #1500BC",
"'  c #1500BD",
"]  c #1600BC",
"[  c #1702BD",
"{  c #1600BE",
"}  c #1700BE",
"|  c #1701BE",
" . c #1505BD",
".. c #1706BD",
"X. c #1803BF",
"o. c #170CB8",
"O. c #190FBD",
"+. c #151AB0",
"@. c #181BB6",
"#. c #1712B8",
"$. c #1912BB",
"%. c #1913BB",
"&. c #1917B9",
"*. c #1B12BF",
"=. c #1A1BBA",
"-. c #1A1EBA",
";. c #2000A7",
":. c #3707A6",
">. c #2B04B6",
",. c #2501BE",
"<. c #360CBB",
"1. c #3C13B0",
"2. c #1931AE",
"3. c #1726B0",
"4. c #1920B5",
"5. c #1D23BC",
"6. c #5B1588",
"7. c #510E9D",
"8. c #56249F",
"9. c #7142A9",
"0. c #1700C0",
"q. c #1700C2",
"w. c #1800C1",
"e. c #1900C2",
"r. c #1900C3",
"t. c #1903C2",
"y. c #1906C0",
"u. c #1B06C3",
"i. c #1A00C4",
"p. c #1A01C4",
"a. c #1A00C5",
"s. c #1902C5",
"d. c #1B03C5",
"f. c #1B00C6",
"g. c #1B00C7",
"h. c #1C00C7",
"j. c #1C05C7",
"k. c #1B0CC3",
"l. c #190AC6",
"z. c #1C08C6",
"x. c #1D0BC6",
"c. c #1B00C8",
"v. c #1B00C9",
"b. c #1B00CA",
"n. c #1A00CB",
"m. c #1C00C8",
"M. c #1C01C8",
"N. c #1C00C9",
"B. c #1D00C9",
"V. c #1C01C9",
"C. c #1C00CA",
"Z. c #1C01CA",
"A. c #1D03CA",
"S. c #1E03CB",
"D. c #1C04C8",
"F. c #1D07C9",
"G. c #1D04CA",
"H. c #1E04CA",
"J. c #1E05CB",
"K. c #1D06CA",
"L. c #1E06CB",
"P. c #1900CC",
"I. c #1A01CC",
"U. c #1F07CC",
"Y. c #1D0AC8",
"T. c #1E0BC9",
"R. c #1E09CA",
"E. c #1E0CC8",
"W. c #1F08CC",
"Q. c #1E13C5",
"!. c #1F10C9",
"~. c #210ECD",
"^. c #200ECE",
"/. c #210FCE",
"(. c #2F11C3",
"). c #211FC7",
"_. c #2011CA",
"`. c #2210CE",
"'. c #2212CF",
"]. c #2313CF",
"[. c #2315CF",
"{. c #2812C9",
"}. c #2118CA",
"|. c #231BCD",
" X c #2318CF",
".X c #2419CF",
"XX c #2315D0",
"oX c #2116D2",
"OX c #2416D0",
"+X c #2518D2",
"@X c #241AD2",
"#X c #251BD2",
"$X c #261BD2",
"%X c #232DC4",
"&X c #2422CB",
"*X c #2521CF",
"=X c #2527CC",
"-X c #2620D4",
";X c #2721D4",
":X c #2823D3",
">X c #2D31D8",
",X c #2E33DA",
"<X c #2F35DB",
"1X c #2F36DB",
"2X c #3B3AD0",
"3X c #323EDD",
"4X c #2F40D7",
"5X c #3C58E7",
"6X c #3C5AE9",
"7X c #3F63EA",
"8X c #436DEF",
/* pixels */
"                                                                ",
"                                                                ",
"                                                                ",
"                                                                ",
"                                                                ",
"                                                                ",
"                                          :                     ",
"                      :                 :                       ",
"                  #.    : :           :     =X                  ",
"                  w |.5X                  1XW                   ",
"                  : c [.7X              1XX.3                   ",
"              :   : < ( +X]./.OX+X]./.+XR.g *     :             ",
"            : :     D ( C.C.C.C.n.C.C.C.g.x 2.    :             ",
"          :       6X=.} C.C.C.C.C.C.C.C.C.I 4X8X    :           ",
"        :     3X*Xy.} e.C.C.C.C.C.C.C.C.C.} e.Q.,X    :         ",
"        :     y.k } C.n.n.C.W.C.C.J.C.n.n.g.g.m L .X  :         ",
"        :       B ( g.:.1./.$XC.n.XXXX(.7.,.} ( Z       :       ",
"            :X_.x.n  .s + % 2Xn.n.+X9.# X g.l  .E.|.1X          ",
"        ,X/.C.C.J.Z %.P . O 8.I.n.{.& @ p l.V O.C.C.J.;X        ",
"      :XJ.C.C.C.).e 5.J.( o 6.I.n.<.$ ;.q.}.y 4./.C.C.C.].      ",
"      W C.C.j.&.y : 3.&XT R a C.n.>.d Q *.%X6 6 J k.C.C.e.G     ",
"      k g.C.d.l * :   S h e.( C.C.e.} U r i   : 3 _ C.C.( <     ",
"      : c g.g.g         m C.C.J.R.J.C.}           U g.( 8       ",
"          w w           L C.}     o.g.g.w   :     8 g 3         ",
"      :         : : :   N !._ 3   n R.%.    : :           :     ",
"        : : : :           F V       H t   :       : : :         ",
"                              @.=.+.                            ",
"                            x.J.J.R.                            ",
"                                                                ",
"                                                                ",
"                                                                ",
"                                                                "
};
