/* XPM */
static char *repackinator[] = {
/* columns rows colors chars-per-pixel */
"32 32 215 2 ",
"   c #0F0C0E",
".  c #100D0D",
"X  c #0E0D12",
"o  c #110E11",
"O  c #0F1118",
"+  c #151214",
"@  c #181315",
"#  c #16151A",
"$  c #18171C",
"%  c #1B191E",
"&  c #2B110F",
"*  c #270E12",
"=  c #221B1E",
"-  c #281717",
";  c #371B1B",
":  c #390E0F",
">  c #1C1C23",
",  c #1D1F28",
"<  c #221E23",
"1  c #2B1E21",
"2  c #1E212C",
"3  c #1B2232",
"4  c #242227",
"5  c #23222E",
"6  c #2D262B",
"7  c #26282E",
"8  c #29292F",
"9  c #2B2224",
"0  c #322123",
"q  c #332A2E",
"w  c #3D2929",
"e  c #3A2424",
"r  c #252431",
"t  c #282733",
"y  c #2A2A35",
"u  c #2D2D39",
"i  c #252A34",
"p  c #352E32",
"a  c #312F3B",
"s  c #382E33",
"d  c #2D323C",
"f  c #323137",
"g  c #3B3134",
"h  c #32323D",
"j  c #3A353B",
"k  c #3C383E",
"l  c #481C1B",
"z  c #571D1C",
"x  c #57201D",
"c  c #61231E",
"v  c #442B2C",
"b  c #492B2B",
"n  c #4E2421",
"m  c #592823",
"M  c #402F35",
"N  c #4D3331",
"B  c #483538",
"V  c #543332",
"C  c #573B3A",
"Z  c #5C312C",
"A  c #6E342F",
"S  c #663C38",
"D  c #723A37",
"F  c #5E413E",
"G  c #75433B",
"H  c #2A3443",
"J  c #353542",
"K  c #383742",
"L  c #333942",
"P  c #3C3B45",
"I  c #353D4B",
"U  c #3E3E49",
"Y  c #303749",
"T  c #413D44",
"R  c #403F4A",
"E  c #5C3F40",
"W  c #3E434D",
"Q  c #37424E",
"!  c #3F4C5C",
"~  c #3C4656",
"^  c #43434C",
"/  c #4C454D",
"(  c #45454A",
")  c #584648",
"_  c #464651",
"`  c #484751",
"'  c #444B54",
"]  c #4B4B54",
"[  c #4D4E5A",
"{  c #414E5E",
"}  c #544E54",
"|  c #594C52",
" . c #46515C",
".. c #4D525B",
"X. c #4A5154",
"o. c #54535C",
"O. c #5A545A",
"+. c #694A48",
"@. c #784C49",
"#. c #624E51",
"$. c #6C5552",
"%. c #655357",
"&. c #795551",
"*. c #785755",
"=. c #76514E",
"-. c #444F60",
";. c #4C5965",
":. c #495765",
">. c #545661",
",. c #5B5B64",
"<. c #555B68",
"1. c #4D5D71",
"2. c #685E61",
"3. c #775F61",
"4. c #56616C",
"5. c #5E616C",
"6. c #566167",
"7. c #4E687B",
"8. c #516474",
"9. c #5B6975",
"0. c #516578",
"q. c #5A6A7A",
"w. c #586575",
"e. c #63636B",
"r. c #69686F",
"t. c #6A6369",
"y. c #796062",
"u. c #656B74",
"i. c #666A75",
"p. c #67737E",
"a. c #6C737F",
"s. c #75747B",
"d. c #7D7379",
"f. c #8E4F48",
"g. c #8A504D",
"h. c #8A5956",
"j. c #965853",
"k. c #8A615C",
"l. c #AC605E",
"z. c #905D62",
"x. c #836563",
"c. c #8C6863",
"v. c #976866",
"b. c #94726C",
"n. c #98736E",
"m. c #977675",
"M. c #877675",
"N. c #AF6E6A",
"B. c #A26A6D",
"V. c #AA7B75",
"C. c #BA7976",
"Z. c #BD6D66",
"A. c #C67871",
"S. c #A2817D",
"D. c #556C82",
"F. c #5E7684",
"G. c #647583",
"H. c #677B8A",
"J. c #7C7B83",
"K. c #757A84",
"L. c #637E98",
"P. c #8A7F80",
"I. c #6A818E",
"U. c #79828E",
"Y. c #6D8190",
"T. c #798B96",
"R. c #7892A2",
"E. c #84868B",
"W. c #8E878B",
"Q. c #898B91",
"!. c #928D92",
"~. c #83919B",
"^. c #8C939B",
"/. c #989395",
"(. c #A48D88",
"). c #B0908B",
"_. c #BC8F94",
"`. c #A69A9D",
"'. c #B89C97",
"]. c #B38C8B",
"[. c #8B9DA9",
"{. c #8997A2",
"}. c #9D9BA3",
"|. c #A49EA7",
" X c #94A2AB",
".X c #95A5B1",
"XX c #9DADBB",
"oX c #99A7B3",
"OX c #A7ACB4",
"+X c #A4B2BD",
"@X c #ACB4BB",
"#X c #A3A2A7",
"$X c #C99C9A",
"%X c #D7968F",
"&X c #E2958A",
"*X c #CCA49D",
"=X c #D1BAB5",
"-X c #E0AFAE",
";X c #E8B9B8",
":X c #D4C1B6",
">X c #95B6C7",
",X c #A9BBC5",
"<X c #A5B8C2",
"1X c #B7C5C9",
"2X c #B9CDD5",
"3X c #B8C6D3",
"4X c #BED1DB",
"5X c #C0CCCF",
"6X c #C0CFD8",
"7X c #C8D5DA",
"8X c #EBC8C8",
"9X c #EED0CD",
"0X c #C4D4E0",
"qX c #DBE9FA",
"wX c #EFFAFF",
/* pixels */
"r r r 5 5 5 5 5 5 5 t u u J K J J J u t r 5 5 5 5 5 5 5 5 5 5 5 ",
"r 5 5 5 5 5 5 5 5 t a U i.}.OX|.K.] P a t r 5 5 5 5 5 5 5 5 5 5 ",
"r r 5 5 5 5 5 5 r u U J.`.M.P.W.!.W.>.P a t 5 5 5 5 5 5 5 5 5 5 ",
"r r 5 5 5 5 5 r t J e.M.w v N V N | d.[ K u t 5 5 5 5 5 5 5 5 r ",
"r r r 5 5 5 r t u [ t.- h.;X8X8X$X; 2.r.U h t r 5 5 5 5 5 5 r r ",
"r r r r r r r y h e.} & A.-X9X8X&Xm ( s._ P u t r 5 5 5 5 r r r ",
"r r r r r r t u P e.e.; Z.-X9X;X%XA / K.[ R h u t r 5 5 5 r r r ",
"t r r r r t t J ^ e.s.b E g $./ 4 w 2.J.,.` U h y t r r r r r r ",
"t t r t t t h U [ u.!.@.9 % d.y.1 V m.E.r.>.` P h u t t r r r r ",
"t t t t y u K ^ ,.s.}.m.g.C._.].l.j.`.Q.J.r.o._ U J h u t t r t ",
"t t y y a h U [ r.E.}.OXj.C.v.z.N.@.^.#XE.s.e.>.[ ^ P h u y t t ",
"y u u h J U ` ,.s.Q.@Xu.Z j.N.B.f.n d +XOX}.J.e.o.[ ^ P h u u t ",
"u u h J U ` o.e.Q.@XXXi - G N.C.D * X p.+X.XXXoXK.,...^ P h u u ",
"u h J U ` o.r..X0X4X[.L & n S S l * % q.,X<X,X2XXX5.,.[ ^ K h u ",
"h J P _ o.K.3XqXwX1X,XG.; c l l z : L {..X1X5X<X9.I i.o._ U J h ",
"h K ^ o.o.~.6X+XK.1.~.+X>.; m x z * ;.{.T.T.4.:.t u 5.,.[ ^ P J ",
"J P ^ ,.>.H { I I L p. X^.3 $ # O 3 T.G.' ] ' W % 7 ..e.o.` U K ",
"J U ` ,.>.> d G.4.7 >.K.~.^.p.{ a.~. X~.W 5 d 5 > 4 h >.,.[ ^ P ",
"J U ` ,...% > u ( h o.K. X1X2XU.^. X6X,X:.u.2Xu.X < 5 _ ,.o.` U ",
"K U ` ,.^ % $ 7 X.f d  .1.~.3Xu.4.q.R.G.d t 4.W o 5 d h O.o.` ^ ",
"K U _ o.^ > 4 # o 8 t Q 9.T.<X4.:.q.H.8.d % X > # j O.| o.o.[ ^ ",
"J P ^ [ P % $ # + 5 y L 8.I.R.;. .0.H.1.5 # + % 9 (.=X*.} o.[ ^ ",
"J P U ` k q g 9 % 6 h W I.Y.;.d L ! :.Q y 4 + % 0 b.'.S.%.o.] ^ ",
"h J U _ / b.:X).- q ..:. ...6.U ' ;.~ h W u X # = @.n.).m.} ` ^ ",
"h J U ^ $.V.(.$.= 6 5 t  .G.~.7X[.F.:.L i ,   + < N c.*.&.%.^ ^ ",
"u J K / c.'.x.e 6 q $ 4  .H..X7XXXH.:.d 5 >   + f 0 +.V b +./ U ",
"u h J #.&.x.b.N y g $ 5 4.[..X7X1XR.0.d 2 >   + P s C =.b =.| J ",
"y u h y.C 0 C v j g # 7 ~ H.+X,XXXq.H i > >   + T k +.*.v *.y.u ",
"y u a m.) 0 b w ( s + 8 Y D.2X{.XX7.2 5 > >   # T U ) &.v k.x.t ",
"t y a n.b.v e q ] q o u ! L.>XY.R.D.H d r >   + j T T +.F V.*.t ",
"t y a b.$X$.- j ( s @ < d ~ 1.0.8.! d f 4 + o + p k k C h.V.C t ",
"t y a c.*XS.w j T j 1 % = < % @ + + + + + + + = f j f B v.B.M u "
};
