<?xml version="1.0" standalone="no"?>
<!DOCTYPE svg PUBLIC "-//W3C//DTD SVG 20010904//EN" "http://www.w3.org/TR/2001/REC-SVG-20010904/DTD/svg10.dtd">
<!-- Created using Karbon, part of Calligra: http://www.calligra.org/karbon -->
<svg xmlns="http://www.w3.org/2000/svg" xmlns:xlink="http://www.w3.org/1999/xlink" width="3686.4pt" height="2764.8pt">
<defs/>
<g id="layer0">
  <path id="shape0" transform="translate(902.26, 412.8)" fill="#00038d" fill-rule="evenodd" d="M2758.64 1558.97L2544.63 1888.38L2213.56 1980.08L1963.66 1814.53L1962.46 1837.68L1633.76 2194.75L1894.26 1815.08L1900.72 1690.4L2225.61 1905.63L2507.07 1827.67ZM2144.97 7.95L2213.39 781.76L2415.61 923.09L2415.61 1059.31L2754.68 1431.77L2346.32 1091.12L2346.32 958.53L2144.05 817.18ZM698.91 38.77L1032.73 342.55L1205.75 465.17L1594.27 465.17L1767.29 342.55L2132.4 0L1815.47 392.68L1616.54 533.66L1183.47 533.66L984.54 392.68ZM7.11 1463.66L384.41 1059.31L384.41 923.09L586.64 781.76L655.13 75.43L655.96 817.18L453.69 958.53L453.69 1091.12ZM824.18 1822.59L586.47 1980.08L255.4 1888.38L242.1 1874.17L0 1514.76C97.65 1619.06 195.31 1723.36 292.95 1827.66L574.41 1905.62L802.66 1754.41L867.84 1753.5L1156.04 2179.41L831.18 1822.5Z"/>
  <path id="shape1" transform="translate(1099, 733.27)" fill="#00038d" fill-rule="evenodd" d="M963.77 1029.74L853.24 995.13L847.46 904.2L771.39 805.65L1019.5 928.7L1061.09 1198.04ZM1441.39 1029.74L1551.92 995.13L1557.7 904.2L1633.77 805.65L1385.66 928.7L1344.08 1198.04ZM1202.6 1634.62L1393.5 1706.24L1448.8 1700.41L1376.45 1802.86L1202.61 1817.26L1202.57 1817.19L1202.57 1817.26L1028.73 1802.86L956.39 1700.41L1011.69 1706.24ZM359.03 772.28L583.57 691.94L503.54 773.77L497.82 846.31L342.73 858.24L30.19 1115.09L77.96 1169.84L0 1236.14L167.38 1415.96L361.03 1474.24L470.55 1400.98L479.08 1364.02L525.72 1178.77L550.84 1307.37L659.87 1306.98L616.48 1185.23L645.16 920.03C651.55 1003.98 657.93 1087.95 664.32 1171.9L771.51 1317.1L874.28 1217.27L805.99 1466L907.57 1615.57L1001.33 1628.91L1162.53 1569.2L1162.53 1490.69L1084.88 1453.48L1059.39 1383.65L1199.22 1416.84L1202.56 1416.09L1202.56 1415.43L1202.6 1416.09L1205.95 1416.84L1345.78 1383.65L1320.3 1453.48L1242.65 1490.69L1242.65 1569.2L1403.85 1628.91L1497.61 1615.57L1599.19 1466L1530.9 1217.27L1633.67 1317.1L1740.86 1171.9C1747.26 1087.95 1753.64 1003.98 1760.02 920.03L1788.7 1185.23L1745.31 1306.98L1854.34 1307.37L1879.46 1178.77L1926.1 1364.02L1934.63 1400.98L2044.16 1474.24L2237.81 1415.96L2405.18 1236.14L2327.22 1169.84L2374.99 1115.09L2062.44 858.24L1907.35 846.31L1901.63 773.77L1821.59 691.94L2046.13 772.28L2046.58 680.43L1700.92 469.88L1824.56 462.36L1825.49 0L1705.68 148.31L1463.48 316.02L1543.5 387.56L1327.21 317.89L1202.6 317.89L1202.56 317.93L1202.56 317.89L1077.96 317.89L861.67 387.56L941.69 316.02L699.49 148.31L579.68 1.13687e-13L580.62 462.36L704.25 469.88L358.59 680.43Z"/>
  <path id="shape2" transform="translate(1129.2, 733.26)" fill="#1c00c9" fill-rule="evenodd" d="M905.13 1060.53L737.71 1016.55L782.67 977.16L782.05 920.26L741.19 805.65L989.3 931.38L1030.89 1198.04L1009.25 1318.96L983.37 1190.9ZM1439.63 1060.53L1607.05 1016.55L1562.09 977.16L1562.71 920.26L1603.57 805.65L1355.46 931.38L1313.88 1198.04L1335.52 1318.96L1361.4 1190.9ZM1352.46 1731.68L1418.59 1700.42L1346.24 1802.87L1172.4 1818.03L998.52 1802.87L926.18 1700.42L992.31 1731.68L1172.36 1674.74ZM328.83 772.29L637.34 639.75L507.2 789.85L506.22 841.08L571.24 869.74L312.54 858.24L0 1115.09L97.88 1163.16L56.48 1224.1L191.36 1373.12L321.33 1414.02L388.87 1363.49L434.57 1222.94L306.73 1234.71L539.05 1110.52L588.37 888.74L589.19 777.98L650.58 879.54L680.14 1139.77L749.41 1242.15L844.93 1159.35L845.4 1091.46L887.05 1214L829.93 1444.58L905.11 1566.71L970.43 1575.37L1079.48 1547.8L1078.81 1509.44L1027.31 1481.04L1029.17 1383.65L1169 1416.84L1172.34 1416.09L1172.34 1415.9L1172.38 1416.09L1175.73 1416.84L1315.56 1383.65L1317.43 1481.04L1265.93 1509.44L1265.26 1547.8L1374.31 1575.37L1439.64 1566.71L1514.81 1444.58L1457.7 1214L1499.35 1091.46L1499.82 1159.35L1595.34 1242.15L1664.61 1139.77L1694.18 879.54L1755.57 777.98L1756.39 888.74L1805.7 1110.52L2038.02 1234.71L1910.18 1222.94L1955.88 1363.49L2023.43 1414.02L2153.41 1373.12L2288.29 1224.1L2246.89 1163.16L2344.77 1115.09L2032.23 858.24L1773.52 869.74L1838.54 841.08L1837.56 789.85L1707.42 639.75L2015.92 772.29L2016.35 680.42L1671.7 469.56L1677.11 544.65L1611.12 726.88L1624.81 546.58L1590.32 405.17L1740.18 202.68L1795.29 0L1675.48 149.65L1433.28 316.02L1511.95 386.23L1297.01 317.89C1213.5 317.89 1131.26 317.89 1047.76 317.89L832.82 386.23L911.49 316.02L669.29 149.65L549.48 0L604.59 202.68L754.46 405.17L719.97 546.58L733.66 726.88L667.67 544.65L673.07 469.56L328.42 680.42Z"/>
  <path id="shape3" transform="translate(1129.19, 733.44)" fill="#4f92f9" fill-rule="evenodd" d="M652.56 164.13L840.07 315.09L831.97 384.93L911.49 315.85L669.29 149.48L549.62 0ZM1692.23 164.13L1504.72 315.09L1512.82 384.93L1433.3 315.85L1675.5 149.48L1795.17 0ZM355.01 686.18L667.8 544.86L667.66 544.48L672.99 470.36L673.04 469.65L673.06 469.39L672.66 469.63L328.41 680.24L328.83 770.27ZM1989.77 686.18L1676.98 544.86L1677.12 544.48L1671.79 470.36L1671.74 469.65L1671.72 469.39L1672.13 469.63L2016.38 680.24L2015.96 770.27ZM323.22 883.79L571.25 869.57L312.54 858.07L0 1114.92L98.69 1163.35L24.93 1108.92ZM2021.56 883.79L1773.54 869.57L2032.25 858.07L2344.79 1114.92L2246.09 1163.35L2319.85 1108.92ZM585.67 900.7L522.52 1089.24L307.02 1234.37L539.06 1110.34ZM1759.11 900.7L1822.27 1089.24L2037.77 1234.37L1805.73 1110.34ZM1032.08 703.86L1011.1 869.85L994.1 890.89L741.46 805.61L989.32 931.21L1030.72 1196.66L1030.72 1196.64L1021.6 917.07L1040.35 884.62ZM1312.7 703.86L1333.68 869.85L1350.68 890.89L1603.33 805.61L1355.47 931.21L1314.07 1196.66L1314.07 1196.64L1323.2 917.07L1304.45 884.62ZM967.8 1557.55L913.62 1548.18L835.31 1453.1L905.12 1566.52L970.44 1575.18L1074.56 1548.86ZM1376.99 1557.55L1431.16 1548.18L1509.48 1453.1L1439.67 1566.52L1374.34 1575.18L1270.22 1548.86ZM1030.74 1383.02L1172.4 1418.04L1314.03 1383.02L1172.36 1395.95ZM706.12 1129.68L650.71 879.78L680.15 1139.59L749.42 1241.97L844.94 1159.17L756.23 1203.98ZM1638.65 1129.68L1694.07 879.78L1664.63 1139.59L1595.36 1241.97L1499.84 1159.17L1588.55 1203.98ZM1049.46 340.64L1172.39 361.13L1295.32 340.64L1511.82 385.98L1297.02 317.72L1172.41 317.72L1172.37 317.73L1172.37 317.72L1047.77 317.72L832.97 385.98Z"/>
  <path id="shape4" transform="translate(2055.9, 2408)" fill="#4f92f9" fill-rule="evenodd" d="M242.59 17.62L426.27 65.98L491.74 25.88L491.89 25.68L425.76 56.94L245.66 0L65.6 56.94L0 25.93L65.51 65.47Z"/>
  <path id="shape5" transform="translate(1870.64, 1539.04)" fill="#c60000" fill-rule="evenodd" d="M0 0L247.86 125.6L289.45 392.26L192.13 223.97L81.6 189.35L75.82 98.42Z"/>
  <path id="shape6" transform="translate(2443.26, 1539.04)" fill="#ff0000" fill-rule="evenodd" d="M289.25 0L213.44 98.42L207.66 189.35L97.13 223.97L0 391.03L41.4 125.6Z"/>
  <g id="group0" transform="" fill="none"/>
  <g id="group1" transform="" fill="none"/>
  <g id="group2" transform="" fill="none"/>
  <g id="group3" transform="" fill="none"/>
  <g id="group4" transform="" fill="none"/>
  <g id="group5" transform="" fill="none"/>
 </g>
</svg>
